<!-- Summit Shield — hero (1600x900) -->
<svg xmlns="http://www.w3.org/2000/svg" viewBox="0 0 1600 900">
  <defs>
    <radialGradient id="bg" cx="20%" cy="12%" r="90%">
      <stop offset="0" stop-color="#0f172a"></stop>
      <stop offset="1" stop-color="#0b1113"></stop>
    </radialGradient>
    <radialGradient id="t1" cx="14%" cy="20%" r="42%">
      <stop offset="0" stop-color="#22d3ee" stop-opacity=".14"></stop>
      <stop offset="1" stop-color="#0b1113" stop-opacity="0"></stop>
    </radialGradient>
    <radialGradient id="t2" cx="90%" cy="12%" r="50%">
      <stop offset="0" stop-color="#10b981" stop-opacity=".14"></stop>
      <stop offset="1" stop-color="#0b1113" stop-opacity="0"></stop>
    </radialGradient>

    <linearGradient id="stroke" x1="0" y1="0" x2="1" y2="1">
      <stop offset="0" stop-color="#7dd3fc"></stop>
      <stop offset="1" stop-color="#22d3ee"></stop>
    </linearGradient>
    <linearGradient id="peak" x1="0" y1="0" x2="0" y2="1">
      <stop offset="0" stop-color="#a5f3fc"></stop>
      <stop offset=".6" stop-color="#38bdf8"></stop>
      <stop offset="1" stop-color="#22d3ee"></stop>
    </linearGradient>
    <filter id="glow" x="-60%" y="-60%" width="220%" height="220%">
      <feGaussianBlur stdDeviation="22" result="b"></feGaussianBlur>
      <feMerge><feMergeNode in="b"></feMergeNode><feMergeNode in="SourceGraphic"></feMergeNode></feMerge>
    </filter>
  </defs>

  <rect width="1600" height="900" fill="url(#bg)"></rect>
  <rect width="1600" height="900" fill="url(#t1)"></rect>
  <rect width="1600" height="900" fill="url(#t2)"></rect>

  <g transform="translate(800 480) scale(1.18)" filter="url(#glow)">
    <!-- shield -->
    <path d="M0 -288 L272 -206 v112 c0 186 -160 278 -272 320 -112 -42 -272 -134 -272 -320 v-112 Z" fill="none" stroke="url(#stroke)" stroke-width="36" stroke-linejoin="round"></path>

    <!-- mountain / summit with sun arc -->
    <path d="M-170 84  -30 -40  40 20  120 -60  210 84" fill="none" stroke="url(#peak)" stroke-width="28" stroke-linecap="round" stroke-linejoin="round"></path>
    <path d="M-40 -100 A140 140 0 0 1 140 -60" fill="none" stroke="#67e8f9" stroke-width="10" stroke-opacity=".4"></path>
  </g>
</svg>
