<!--?xml version="1.0" encoding="UTF-8"?-->
<svg width="1200" height="800" viewBox="0 0 1200 800" xmlns="http://www.w3.org/2000/svg">
  <defs>
    <linearGradient id="g" x1="0" y1="0" x2="1" y2="1">
      <stop offset="0" stop-color="#10181b"></stop>
      <stop offset="1" stop-color="#1a252a"></stop>
    </linearGradient>
  </defs>
  <rect width="1200" height="800" fill="url(#g)"></rect>
  <g opacity=".08" stroke="#fff">
    <!-- subtle grid -->
    <g>
      <path d="M0 50 H1200"></path>
      <path d="M0 100 H1200"></path>
      <path d="M0 150 H1200"></path>
      <path d="M0 200 H1200"></path>
      <path d="M0 250 H1200"></path>
      <path d="M0 300 H1200"></path>
      <path d="M0 350 H1200"></path>
      <path d="M0 400 H1200"></path>
      <path d="M0 450 H1200"></path>
      <path d="M0 500 H1200"></path>
      <path d="M0 550 H1200"></path>
      <path d="M0 600 H1200"></path>
      <path d="M0 650 H1200"></path>
      <path d="M0 700 H1200"></path>
      <path d="M0 750 H1200"></path>
    </g>
    <g>
      <path d="M50 0 V800"></path>
      <path d="M100 0 V800"></path>
      <path d="M150 0 V800"></path>
      <path d="M200 0 V800"></path>
      <path d="M250 0 V800"></path>
      <path d="M300 0 V800"></path>
      <path d="M350 0 V800"></path>
      <path d="M400 0 V800"></path>
      <path d="M450 0 V800"></path>
      <path d="M500 0 V800"></path>
      <path d="M550 0 V800"></path>
      <path d="M600 0 V800"></path>
      <path d="M650 0 V800"></path>
      <path d="M700 0 V800"></path>
      <path d="M750 0 V800"></path>
      <path d="M800 0 V800"></path>
      <path d="M850 0 V800"></path>
      <path d="M900 0 V800"></path>
      <path d="M950 0 V800"></path>
      <path d="M1000 0 V800"></path>
      <path d="M1050 0 V800"></path>
      <path d="M1100 0 V800"></path>
      <path d="M1150 0 V800"></path>
    </g>
  </g>
  <g>
    <circle cx="780" cy="250" r="160" fill="#1b6b8a" opacity=".35"></circle>
    <circle cx="980" cy="560" r="120" fill="#c99833" opacity=".25"></circle>
  </g>
  <text x="50" y="90" font-family="system-ui, -apple-system, Segoe UI, Roboto, Helvetica, Arial, sans-serif" font-size="48" fill="#dbe9eb" opacity=".9">Kit preview</text>
</svg>
